<svg id="Layer_1" data-name="Layer 1" xmlns="http://www.w3.org/2000/svg" xmlns:xlink="http://www.w3.org/1999/xlink" height="100" width="250" viewBox="0 0 500 200"><defs><style>.cls-1{fill:none;}.cls-2{clip-path:url(#clip-path);}.cls-3{fill-opacity:0;}.cls-4{fill:#6aa84f;}</style><clipPath id="clip-path"><rect class="cls-1" width="500" height="200"/></clipPath></defs><title>logotext</title><g class="cls-2"><path class="cls-3" d="M0,0H500V200H0Z"/><path class="cls-3" d="M0,0H500.33V172.5H0Z"/><path class="cls-4" d="M29.16,146.24q-6.47-1.94-9-3.88a5.88,5.88,0,0,1-2.49-4.84,23.29,23.29,0,0,1,1.2-6.2,91.24,91.24,0,0,1,3.57-9.46q2.37-5.46,5.66-12.09t7.49-14.23q-3.51-.13-6.27-.2t-4.51-.07q.81-2.07,4.58-3.59a52.49,52.49,0,0,1,10-2.63A195.49,195.49,0,0,1,50.66,72q6-8.16,12.06-15A123.07,123.07,0,0,1,74.87,45a71.23,71.23,0,0,1,11.6-8.23q.13-1,.2-1.65t.07-1a18.44,18.44,0,0,1,5.05,1,51.58,51.58,0,0,1,11.59,5.17q2.37,1.45,2.63,2.43-4.44,8-8.76,24a287.42,287.42,0,0,0-7.14,38.18q-.67,5.53-1.15,12.57t-.46,15.73v6.22q0,3.17.26,6.62a1.18,1.18,0,0,1-.54.13H87.14a18.47,18.47,0,0,1-4.39-.62,40,40,0,0,1-4.85-1.52,20.89,20.89,0,0,1-4-2A5.78,5.78,0,0,1,71.77,140q-.13-1.8-.13-3.52v-3.66q0-8.56.59-17.39t2.09-18.24l-5-.34q-3.09-.2-6.95-.34l-8.23-.35q-4.38-.2-8.56-.34-3.23,6.2-6.06,12.35a112.85,112.85,0,0,0-4.85,12.35A112.38,112.38,0,0,0,31,133.82,90.26,90.26,0,0,0,29.16,146.24Zm52-83q.54-1.92,1.28-5.31t1.42-7.11a27.7,27.7,0,0,0-7.49,4.57,71.93,71.93,0,0,0-8.49,8.21q-4.38,4.89-8.9,11t-8.69,13q11.32-1,25.76-1.25,1.07-5.8,2.35-11.53T81.2,63.25ZM131,68.77a14.17,14.17,0,0,1,6.6,4.9A25.51,25.51,0,0,1,142.15,82a67,67,0,0,1-4.59,9q-3.09,5.24-6.2,10.7t-5.6,10.35a26.62,26.62,0,0,0-2.9,8.07q2.16-2.34,4.79-5.44t5.12-6.22q2.5-3.1,4.66-5.65T140.8,99q2.55-2.76,6.06-6.42a95.28,95.28,0,0,1,7.34-6.89,55,55,0,0,1,7.75-5.53,14.5,14.5,0,0,1,7.16-2.28A7.86,7.86,0,0,1,175,80.3a20.72,20.72,0,0,1,3.72,5q0,.27-1,.76a11.45,11.45,0,0,0-2.9,2.7,53.51,53.51,0,0,0-4.25,6.83q-2.35,4.35-4.59,9.39a77.76,77.76,0,0,0-3.7,10.3,35.33,35.33,0,0,0-1.48,9.52q0,3.46.87,4.42a3.24,3.24,0,0,0,2.5,1,7.85,7.85,0,0,0,3.09-.69,7.13,7.13,0,0,1,2.57-.69,2.06,2.06,0,0,1,.87,1.18,4.47,4.47,0,0,1,.35,1.58,20.56,20.56,0,0,1-2.57,1.94q-1.48,1-3.11,1.8a25,25,0,0,1-3.16,1.37,8.29,8.29,0,0,1-2.76.56,15,15,0,0,1-6.4-1.18,9.9,9.9,0,0,1-3.9-3.1,11.64,11.64,0,0,1-2-4.62,29,29,0,0,1-.54-5.73,29.57,29.57,0,0,1,.26-3.73,35.82,35.82,0,0,1,1.09-4.9q.81-2.83,2.29-6.76T154,97.77a26.34,26.34,0,0,0-3.65,1.94,35.39,35.39,0,0,0-7.27,5.93,165.22,165.22,0,0,0-11.39,12.3q-5.05,6.07-10.32,13.52-3,4.28-5.18,7.25a15.43,15.43,0,0,1-3.85,3.94,10.14,10.14,0,0,1-4.18-4.64,29.73,29.73,0,0,1-2-6.14,37.65,37.65,0,0,1,.74-6.62q.76-4,2-8.92t3.18-10.28q1.89-5.39,4.18-10.77a144.57,144.57,0,0,1,9.36-19Q129.87,69.33,131,68.77Zm99.22,9.81a48,48,0,0,1-3,14.7,31.89,31.89,0,0,1-6.95,10.77,50.55,50.55,0,0,1-11,8.36,119.18,119.18,0,0,1-15.09,7.18q0,.83-.07,1.72t-.07,1.87a27.69,27.69,0,0,0,.26,3.73,15.5,15.5,0,0,0,1,3.59,7,7,0,0,0,1.88,2.7,4.66,4.66,0,0,0,3.11,1,16.6,16.6,0,0,0,7.14-1.65,37.66,37.66,0,0,0,6.67-4.08,53.44,53.44,0,0,0,5.94-5.24q2.76-2.83,4.92-5.19a26.73,26.73,0,0,1,2.29,2.36,66.11,66.11,0,0,1-13.28,13.74q-7.21,5.44-13.68,7-9.31-1.1-14.5-7A20.64,20.64,0,0,1,180.57,120a45.09,45.09,0,0,1,1.55-11.53,57,57,0,0,1,4.31-11.31,65.81,65.81,0,0,1,6.47-10.3,54.37,54.37,0,0,1,8-8.43,38.05,38.05,0,0,1,8.76-5.65,21.4,21.4,0,0,1,9-2.07Q224.79,71.54,230.17,78.58Zm-9.3,4.55a19.75,19.75,0,0,0-7.55,3.05A31.73,31.73,0,0,0,206,92.81a52.19,52.19,0,0,0-6.27,9.66,56.07,56.07,0,0,0-4.44,11.87,60.14,60.14,0,0,0,17.92-13.59Q220.33,92.66,220.88,83.14Zm63.77-4.55a48,48,0,0,1-3,14.7,31.89,31.89,0,0,1-6.95,10.77,50.55,50.55,0,0,1-11,8.36,119.18,119.18,0,0,1-15.09,7.18q0,.83-.07,1.72t-.07,1.87a27.69,27.69,0,0,0,.26,3.73,15.5,15.5,0,0,0,1,3.59,7,7,0,0,0,1.88,2.7,4.66,4.66,0,0,0,3.11,1,16.6,16.6,0,0,0,7.14-1.65,37.66,37.66,0,0,0,6.67-4.08,53.44,53.44,0,0,0,5.94-5.24q2.76-2.83,4.92-5.19a26.73,26.73,0,0,1,2.29,2.36,66.11,66.11,0,0,1-13.28,13.74q-7.21,5.44-13.68,7-9.31-1.1-14.5-7A20.64,20.64,0,0,1,235,120a45.09,45.09,0,0,1,1.55-11.53,57,57,0,0,1,4.31-11.31,65.8,65.8,0,0,1,6.47-10.3,54.37,54.37,0,0,1,8-8.43,38.05,38.05,0,0,1,8.76-5.65,21.4,21.4,0,0,1,9-2.07Q279.26,71.54,284.64,78.58Zm-9.3,4.55a19.75,19.75,0,0,0-7.55,3.05,31.73,31.73,0,0,0-7.34,6.62,52.19,52.19,0,0,0-6.27,9.66,56.07,56.07,0,0,0-4.44,11.87,60.14,60.14,0,0,0,17.92-13.59Q274.8,92.66,275.34,83.14Zm18.47,26.78q5-20.43,9.78-29.88t10-9.47q3.77,0,9,3.74-4.31,7.87-6.68,13a55.89,55.89,0,0,0-3.42,9.46q-2.3,8.28-4.87,17.19t-5.05,17.06q-2.49,8.14-4.58,14.7t-3.31,10a123.3,123.3,0,0,1-5.86,13.8,46.43,46.43,0,0,1-6,9.25,20.45,20.45,0,0,1-6.53,5.24,16.93,16.93,0,0,1-7.49,1.67,27.76,27.76,0,0,1-5.86-.62,32.25,32.25,0,0,1-5.45-1.67A20,20,0,0,1,253,180.9a15.38,15.38,0,0,1-3.24-3.19,3.69,3.69,0,0,1,.87-1.85,2.79,2.79,0,0,1,1.42-1,13.32,13.32,0,0,0,10.8,4.7,11.9,11.9,0,0,0,7.62-2.63q3.29-2.61,6.67-10.15a165.39,165.39,0,0,0,7.27-21.12Q288.29,132,293.82,109.92Zm22-50.26a11.33,11.33,0,0,1,.41-2.34,6.41,6.41,0,0,1-1.63-4.7,24.93,24.93,0,0,1,.33-3.44q.35-2.21,1-4.77t1.35-5.17a40.8,40.8,0,0,1,1.55-4.57,11.45,11.45,0,0,1,4,.91,30.09,30.09,0,0,1,4.77,2.34A31.85,31.85,0,0,1,332,41.1a18.71,18.71,0,0,1,3.11,3.24q-1.63,1.52-4.07,4.28t-4.71,5.73q-2.29,3-4.18,5.53a17.33,17.33,0,0,0-2.29,3.66A5.39,5.39,0,0,1,317,62.08,3.41,3.41,0,0,1,315.79,59.66Zm7,66.83a30.18,30.18,0,0,1,.2-3.1q.2-1.87.74-5t1.42-7.52q.87-4.43,2.22-10.64.28-1.38,1.22-4.42a52.4,52.4,0,0,1,2.49-6.42,42.25,42.25,0,0,1,3.79-6.56,14,14,0,0,1,5.33-4.7A23.58,23.58,0,0,1,346.26,81a20.44,20.44,0,0,1,6.47,6.29,48.23,48.23,0,0,0-5.18,7.18,73.67,73.67,0,0,0-3.79,7.45q-1.68,3.86-3.09,8t-3.16,8.7q-1.48,3.88-2.7,8a29.72,29.72,0,0,0-1.35,7.1q0,2.49-.07,3.52t-.74,1a7.35,7.35,0,0,1-2.17-.69,12.49,12.49,0,0,1-3.29-2.12,15.36,15.36,0,0,1-3-3.66A9.94,9.94,0,0,1,322.8,126.49Zm25.74-59.92a11.55,11.55,0,0,1,.41-2.49A5.54,5.54,0,0,1,347.8,62a8,8,0,0,1-.46-2.49,23.61,23.61,0,0,1,.33-3.39q.35-2.14.87-4.62t1.35-5.17q.82-2.7,1.63-4.9a11.6,11.6,0,0,1,4,.89,29.77,29.77,0,0,1,4.79,2.34,31,31,0,0,1,4.44,3.19,18.71,18.71,0,0,1,3.11,3.24q-1.48,1.52-3.92,4.21T359.19,61q-2.29,3-4.18,5.6a31.19,31.19,0,0,0-2.42,3.73,5.23,5.23,0,0,1-2.83-1.45A3.3,3.3,0,0,1,348.54,66.57ZM401,79.95a12.36,12.36,0,0,1,3.16.49,16.72,16.72,0,0,1,3.31,1.25A13.84,13.84,0,0,1,410,83.27q1,.83,1,1.52-2.7,5.8-5,11.68t-3.92,11.26a96.55,96.55,0,0,0-2.49,10.08,45.27,45.27,0,0,0-.87,8.12,21.79,21.79,0,0,0,.81,6.44,6.12,6.12,0,0,0,2.7,3.64,13.79,13.79,0,0,1-4.2,1.8,17.7,17.7,0,0,1-4.58.69q-7.27,0-7.27-10.21,0-7.87,5.12-21.54a86.69,86.69,0,0,1-13.35,21.81,42.66,42.66,0,0,1-7.36,7,17.16,17.16,0,0,1-6.8,3.24,10.11,10.11,0,0,1-8.1-4.89q-3.09-4.64-3.09-11.82a46.24,46.24,0,0,1,3.23-16.3,73.8,73.8,0,0,1,8.29-15.88,60.29,60.29,0,0,1,11-12.22q5.92-4.9,11.45-5.17a10.56,10.56,0,0,1,3,1.67,24,24,0,0,1,5.88,6.29,7.29,7.29,0,0,1,1.22,2.95q-5.4.83-11.13,5.39a55.55,55.55,0,0,0-10.38,11,64.65,64.65,0,0,0-7.62,13.74,36.57,36.57,0,0,0-3,13.67q0,2.63,1.89,3.32,3.9-.83,9-6.83t12.41-18.59q1.35-2.48,3-5.51t3.44-6.35q1.76-3.32,3.44-6.69T401,79.95Zm38.7-11.18a14.17,14.17,0,0,1,6.6,4.9A25.51,25.51,0,0,1,450.89,82a67,67,0,0,1-4.59,9q-3.09,5.24-6.2,10.7t-5.6,10.35a26.62,26.62,0,0,0-2.9,8.07q2.16-2.34,4.79-5.44t5.12-6.22q2.5-3.1,4.66-5.65T449.54,99q2.55-2.76,6.06-6.42a95.28,95.28,0,0,1,7.34-6.89,55,55,0,0,1,7.75-5.53,14.5,14.5,0,0,1,7.16-2.28,7.86,7.86,0,0,1,5.86,2.41,20.72,20.72,0,0,1,3.72,5q0,.27-1,.76a11.45,11.45,0,0,0-2.9,2.7,53.52,53.52,0,0,0-4.25,6.83q-2.35,4.35-4.59,9.39a77.76,77.76,0,0,0-3.7,10.3,35.33,35.33,0,0,0-1.48,9.52q0,3.46.87,4.42a3.24,3.24,0,0,0,2.5,1,7.85,7.85,0,0,0,3.09-.69,7.13,7.13,0,0,1,2.57-.69,2.06,2.06,0,0,1,.87,1.18,4.47,4.47,0,0,1,.35,1.58,20.56,20.56,0,0,1-2.57,1.94q-1.48,1-3.11,1.8a25,25,0,0,1-3.16,1.37,8.29,8.29,0,0,1-2.76.56,15,15,0,0,1-6.4-1.18,9.9,9.9,0,0,1-3.9-3.1,11.64,11.64,0,0,1-2-4.62,29,29,0,0,1-.54-5.73,29.57,29.57,0,0,1,.26-3.73,35.82,35.82,0,0,1,1.09-4.9q.81-2.83,2.29-6.76t3.79-9.47a26.34,26.34,0,0,0-3.65,1.94,35.39,35.39,0,0,0-7.27,5.93,165.23,165.23,0,0,0-11.39,12.3q-5.05,6.07-10.32,13.52-3,4.28-5.18,7.25a15.43,15.43,0,0,1-3.85,3.94A10.14,10.14,0,0,1,416.9,138a29.73,29.73,0,0,1-2-6.14,37.65,37.65,0,0,1,.74-6.62q.76-4,2-8.92t3.18-10.28q1.89-5.39,4.18-10.77a144.57,144.57,0,0,1,9.36-19Q438.61,69.33,439.7,68.77Z"/><path class="cls-4" d="M51.48,183.76l364.28-31.27-358.08,38Z"/></g></svg>